<svg width="32" height="32" viewBox="0 0 32 32" fill="none" xmlns="http://www.w3.org/2000/svg">
<path fill-rule="evenodd" clip-rule="evenodd" d="M31.0423 3.71578H17.4363C16.8037 3.64341 14.8359 4.59995 13.3864 7.76059C14.2042 6.22772 15.4111 5.09194 17.2768 4.62575H30.7232L29.7655 8.34146H16.1595C15.4946 8.26544 13.3532 9.32715 11.8903 12.8911C12.1667 11.1589 12.5423 9.52714 13.1831 8.16623C13.8158 4.26466 14.9691 0.895401 18.5536 0H32L31.0423 3.71578ZM28.5286 13.3461H14.9226C14.2577 13.2701 12.1163 14.3318 10.6534 17.8957C11.2826 13.9525 12.4251 10.5333 16.0399 9.63037H29.4863L28.5286 13.3461Z" fill="white"/>
<path fill-rule="evenodd" clip-rule="evenodd" d="M31.0423 3.71578H17.4363C16.8037 3.64341 14.8359 4.59995 13.3864 7.76059C14.2042 6.22772 15.4111 5.09194 17.2768 4.62575H30.7232L29.7655 8.34146H16.1595C15.4946 8.26544 13.3532 9.32715 11.8903 12.8911C12.1667 11.1589 12.5423 9.52714 13.1831 8.16623C13.8158 4.26466 14.9691 0.895401 18.5536 0H32L31.0423 3.71578ZM28.5286 13.3461H14.9226C14.2577 13.2701 12.1163 14.3318 10.6534 17.8957C11.2826 13.9525 12.4251 10.5333 16.0399 9.63037H29.4863L28.5286 13.3461Z" fill="url(#paint0_linear_45_35)"/>
<path fill-rule="evenodd" clip-rule="evenodd" d="M0.957742 28.2842H14.5637C15.1962 28.3567 17.1641 27.4001 18.6136 24.2395C17.7958 25.7724 16.5889 26.9081 14.7232 27.3743H1.27679L2.23454 23.6585H15.8405C16.5054 23.7346 18.6467 22.6729 20.1097 19.1089C19.8333 20.8411 19.4577 22.4729 18.8169 23.8338C18.1842 27.7353 17.0309 31.1046 13.4464 32H0L0.957742 28.2842ZM3.47141 18.6539H17.0774C17.7423 18.7299 19.8837 17.6683 21.3466 14.1043C20.7174 18.0475 19.5749 21.4667 15.9601 22.3697H2.51371L3.47141 18.6539Z" fill="white"/>
<path fill-rule="evenodd" clip-rule="evenodd" d="M0.957742 28.2842H14.5637C15.1962 28.3567 17.1641 27.4001 18.6136 24.2395C17.7958 25.7724 16.5889 26.9081 14.7232 27.3743H1.27679L2.23454 23.6585H15.8405C16.5054 23.7346 18.6467 22.6729 20.1097 19.1089C19.8333 20.8411 19.4577 22.4729 18.8169 23.8338C18.1842 27.7353 17.0309 31.1046 13.4464 32H0L0.957742 28.2842ZM3.47141 18.6539H17.0774C17.7423 18.7299 19.8837 17.6683 21.3466 14.1043C20.7174 18.0475 19.5749 21.4667 15.9601 22.3697H2.51371L3.47141 18.6539Z" fill="url(#paint1_linear_45_35)"/>
<defs>
<linearGradient id="paint0_linear_45_35" x1="2.02125" y1="31.0919" x2="36.3607" y2="21.5292" gradientUnits="userSpaceOnUse">
<stop stop-color="#917300"/>
<stop offset="1" stop-color="#BC9B0E"/>
</linearGradient>
<linearGradient id="paint1_linear_45_35" x1="2.02125" y1="31.0919" x2="36.3607" y2="21.5292" gradientUnits="userSpaceOnUse">
<stop stop-color="#917300"/>
<stop offset="1" stop-color="#BC9B0E"/>
</linearGradient>
</defs>
</svg>
