<svg width="1001" height="327" viewBox="0 0 1001 327" fill="none" xmlns="http://www.w3.org/2000/svg">
<path fill-rule="evenodd" clip-rule="evenodd" d="M984.567 218.511H926.534C916.695 220.112 915.869 224.56 912.714 231.953L894.39 274.869C891.536 281.557 896.81 283.586 902.251 285.704H955.882L940.155 322.55H889.59C855.94 326.478 837.475 300.897 846.819 279.009L869.416 226.078C883.836 192.296 924.018 180.853 938.933 181.667H1000.3L984.567 218.511ZM548.067 214.217C546.13 223.253 541.109 231.307 533.005 238.385C524.893 245.462 515.59 249.948 505.096 251.836L504.72 252.644C512.795 252.644 518.631 255.542 522.233 261.338C525.441 266.463 526.342 272.326 524.926 278.932C522.442 290.531 515.446 300.576 503.942 309.069C490.501 319.046 474.164 324.033 454.923 324.033H366.321L425.296 182.467H512.886C527.284 182.467 537.446 185.903 543.372 192.779C548.32 198.578 549.886 205.723 548.067 214.217ZM492.72 222.914C493.329 220.083 493.079 217.791 491.973 216.039C489.974 212.801 485.545 211.185 478.682 211.185H464.758L453.26 238.485H465.974C473.376 238.485 479.459 236.937 484.224 233.838C488.994 230.732 491.826 227.092 492.72 222.914ZM470.274 278.732C470.736 276.573 470.63 274.553 469.959 272.666C468.923 269.97 467.304 268.251 465.109 267.507C462.914 266.767 459.865 266.396 455.965 266.396H441.633L429.586 295.314H443.31C451.386 295.314 457.91 293.427 462.89 289.655C466.916 286.55 469.379 282.91 470.274 278.732ZM689.123 218.059L644.836 324.033H598.416L619.12 274.485H618.108L574.198 324.033H523.946L568.233 218.059H614.65L593.951 267.608H594.961L639.274 218.059H689.123ZM873.745 182.467L798.589 248.801L819.21 324.033H754.626L744.887 263.968H744.078L719.107 324.033H665.02L723.992 182.467H778.082L754.867 238.084H755.677L812.189 182.467H873.745Z" fill="white"/>
<path fill-rule="evenodd" clip-rule="evenodd" d="M600.517 37.9416H337.308C325.071 37.2027 287.002 46.9698 258.961 79.243C274.782 63.5909 298.131 51.9935 334.222 47.2334H594.345L575.817 85.1742H312.608C299.745 84.3981 258.32 95.2391 230.019 131.631C235.366 113.943 242.633 97.2812 255.029 83.385C267.269 43.5463 289.58 9.1429 358.922 0H619.045L600.517 37.9416ZM551.89 136.276H288.68C275.817 135.5 234.392 146.341 206.091 182.733C218.264 142.469 240.366 107.555 310.294 98.3353H570.416L551.89 136.276Z" fill="white"/>
<path fill-rule="evenodd" clip-rule="evenodd" d="M600.517 37.9416H337.308C325.071 37.2027 287.002 46.9698 258.961 79.243C274.782 63.5909 298.131 51.9935 334.222 47.2334H594.345L575.817 85.1742H312.608C299.745 84.3981 258.32 95.2391 230.019 131.631C235.366 113.943 242.633 97.2812 255.029 83.385C267.269 43.5463 289.58 9.1429 358.922 0H619.045L600.517 37.9416ZM551.89 136.276H288.68C275.817 135.5 234.392 146.341 206.091 182.733C218.264 142.469 240.366 107.555 310.294 98.3353H570.416L551.89 136.276Z" fill="url(#paint0_linear_45_3)"/>
<path fill-rule="evenodd" clip-rule="evenodd" d="M18.5277 288.809H281.736C293.973 289.549 332.042 279.781 360.084 247.508C344.262 263.16 320.914 274.757 284.822 279.518H24.6998L43.2275 241.576H306.436C319.3 242.352 360.724 231.511 389.025 195.12C383.678 212.808 376.411 229.469 364.015 243.366C351.775 283.204 329.465 317.608 260.123 326.751H0L18.5277 288.809ZM67.155 190.474H330.364C343.228 191.251 384.652 180.41 412.954 144.018C400.781 184.283 378.679 219.196 308.751 228.416H48.628L67.155 190.474Z" fill="white"/>
<path fill-rule="evenodd" clip-rule="evenodd" d="M18.5277 288.809H281.736C293.973 289.549 332.042 279.781 360.084 247.508C344.262 263.16 320.914 274.757 284.822 279.518H24.6998L43.2275 241.576H306.436C319.3 242.352 360.724 231.511 389.025 195.12C383.678 212.808 376.411 229.469 364.015 243.366C351.775 283.204 329.465 317.608 260.123 326.751H0L18.5277 288.809ZM67.155 190.474H330.364C343.228 191.251 384.652 180.41 412.954 144.018C400.781 184.283 378.679 219.196 308.751 228.416H48.628L67.155 190.474Z" fill="url(#paint1_linear_45_3)"/>
<defs>
<linearGradient id="paint0_linear_45_3" x1="39.1014" y1="317.478" x2="599.057" y2="22.0548" gradientUnits="userSpaceOnUse">
<stop stop-color="#917300"/>
<stop offset="1" stop-color="#BC9B0E"/>
</linearGradient>
<linearGradient id="paint1_linear_45_3" x1="39.1014" y1="317.478" x2="599.057" y2="22.0548" gradientUnits="userSpaceOnUse">
<stop stop-color="#917300"/>
<stop offset="1" stop-color="#BC9B0E"/>
</linearGradient>
</defs>
</svg>
